<?xml version="1.0" encoding="utf-8"?>
<!-- Generator: Adobe Illustrator 24.3.0, SVG Export Plug-In . SVG Version: 6.00 Build 0)  -->
<svg version="1.1" id="Layer_1" xmlns="http://www.w3.org/2000/svg" xmlns:xlink="http://www.w3.org/1999/xlink" x="0px" y="0px"
	 viewBox="0 0 397 100" style="enable-background:new 0 0 397 100;" xml:space="preserve">
<style type="text/css">
	.st0{fill:#E91C34;}
</style>
<g>
	<g>
		<g>
			<path class="st0" d="M38.24,37.71c0,1,0.81,1.8,1.81,1.8c1,0,1.8-0.81,1.8-1.8c0-1-0.81-1.8-1.8-1.8
				C39.04,35.91,38.24,36.71,38.24,37.71z"/>
			<path class="st0" d="M95.92,40.35c0,0-2.41,6.9-6.7,14.09c-1.4,1.64-3.01,2.81-4.58,3.65c1.71-3.92,3.23-8.15,2.34-5.87
				c-1.47,3.74-8.95,7.83-8.95,7.83l0,0c-0.12,0.05-0.24,0.1-0.36,0.15l0,0l0,0c-1.92,0.79-3.73,1.71-5.18,2.51
				c-4.22,6.43-11.5,10.68-19.77,10.68c-13.05,0-23.63-10.58-23.63-23.63c0-1.88,0.23-3.7,0.64-5.45l-4.75-3.82l6.41-0.89
				c3.8-7.97,11.93-13.47,21.34-13.47c10.79,0,19.88,7.23,22.71,17.11c-7.93,0.26-19.06,2.32-32.16,7.84c0,0,15.61,0.93,29.69-0.34
				c3.66-0.33,7.22-0.81,10.38-1.49c1.14-0.25,2.07-0.53,2.82-0.83c0.23-0.11,0.88-0.51,1.27-1.67c0.14-0.4,0.25-0.89,0.29-1.49
				c0.1-1.26-0.05-3.01-0.71-5.42c-4.3-14.89-18.03-25.78-34.3-25.78c-19.72,0-35.7,15.98-35.7,35.7c0,19.72,15.99,35.71,35.7,35.71
				c13.39,0,25.05-7.37,31.16-18.26v0C83.87,67.19,92.52,54.88,95.92,40.35z"/>
		</g>
	</g>
	<g>
		<path class="st0" d="M104.86,50.92c0.27-2.77,0.61-8.06,1-15.88h-2.64c0.04-0.45,0.1-1.4,0.18-2.86c0.08-1.46,0.13-2.51,0.14-3.16
			h3.07c-0.01-0.58-0.02-1.07-0.02-1.49c0-1.33,0.07-2.37,0.21-3.12c0.14-0.75,0.39-1.39,0.76-1.91c0.37-0.53,0.89-1,1.56-1.41
			c0.67-0.41,1.43-0.69,2.27-0.83c0.84-0.14,1.72-0.22,2.63-0.22c0.84,0,1.74,0.05,2.71,0.16c0.97,0.11,2.14,0.34,3.49,0.7
			c0.04,2.29,0.14,4.2,0.28,5.71c-1.43-0.52-2.71-0.78-3.85-0.78c-0.78,0-1.39,0.18-1.83,0.54c-0.44,0.36-0.66,1.02-0.66,1.99
			l0.02,0.65h4.97c-0.12,1.66-0.23,3.66-0.35,6.01h-4.5l-0.71,15.88c-1.72-0.03-3.19-0.04-4.41-0.04
			C107.94,50.88,106.5,50.9,104.86,50.92z"/>
		<path class="st0" d="M121.4,50.92l0.39-4.65l0.84-16.17l0.24-8.7c2.01,0.03,3.52,0.04,4.53,0.04c1.31,0,2.76-0.01,4.35-0.04
			l-0.49,6.64l-0.79,16.35l-0.17,6.53c-1.54-0.01-2.94-0.02-4.18-0.02L121.4,50.92z"/>
		<path class="st0" d="M135.03,50.92c0.2-1.76,0.35-3.21,0.45-4.35c0.1-1.14,0.2-2.6,0.29-4.37c0.09-1.77,0.18-3.73,0.25-5.88
			c0.07-2.15,0.13-4.64,0.17-7.48c1.88,0.03,3.38,0.04,4.5,0.04c1.02,0,2.5-0.01,4.42-0.04c-0.25,2.73-0.43,5.12-0.54,7.18
			c-0.11,2.06-0.18,4.25-0.21,6.55c-0.06,4.1-0.09,6.88-0.09,8.35c-1.71-0.03-3.19-0.04-4.43-0.04
			C138.63,50.88,137.02,50.9,135.03,50.92z M136.4,26.07c0.09-1.72,0.13-3.07,0.13-4.07c0-0.29-0.01-0.68-0.02-1.17
			c1.75,0.03,3.21,0.04,4.39,0.04c1.63,0,3.06-0.01,4.28-0.04c-0.04,0.45-0.07,0.82-0.09,1.12l-0.13,2.68
			c-0.03,0.4-0.04,0.88-0.04,1.43c-1.43-0.03-2.8-0.04-4.11-0.04C139.45,26.02,137.98,26.04,136.4,26.07z"/>
		<path class="st0" d="M150.72,53.61c1.86,0.63,3.5,1.08,4.91,1.33c1.41,0.25,2.65,0.38,3.7,0.38c0.76,0,1.46-0.08,2.08-0.25
			c0.62-0.17,1.12-0.37,1.49-0.62c0.38-0.24,0.7-0.55,0.96-0.93c0.27-0.38,0.47-0.79,0.62-1.25c0.14-0.46,0.25-1,0.3-1.6
			c0.06-0.61,0.11-1.44,0.15-2.51c-0.56,0.5-1.05,0.91-1.46,1.21c-0.41,0.3-0.92,0.6-1.52,0.88c-0.61,0.28-1.27,0.5-1.98,0.65
			c-0.71,0.15-1.47,0.23-2.26,0.23c-1.83,0-3.48-0.43-4.95-1.28c-1.47-0.85-2.57-2.04-3.29-3.57c-0.72-1.53-1.08-3.18-1.08-4.95
			c0-2.09,0.39-3.98,1.17-5.67c0.78-1.69,1.89-3.11,3.34-4.28c1.45-1.17,3.04-1.98,4.77-2.42c1.73-0.45,3.69-0.67,5.88-0.67
			c1.25,0,2.68,0.08,4.27,0.23c1.59,0.15,3.78,0.48,6.56,0.98l-0.51,7.14l-0.45,7.83c-0.03,0.56-0.04,1.02-0.04,1.38l-0.17,7.03
			c-0.03,0.89-0.14,1.74-0.32,2.55c-0.16,0.73-0.43,1.42-0.8,2.05c-0.38,0.63-0.84,1.19-1.38,1.67c-0.61,0.52-1.28,0.93-2.03,1.23
			c-0.76,0.32-1.66,0.58-2.7,0.78c-1.12,0.2-2.3,0.3-3.53,0.3c-0.69,0-1.54-0.03-2.55-0.1c-1.01-0.06-2.04-0.16-3.1-0.29
			c-1.06-0.13-1.98-0.27-2.75-0.41c-0.77-0.14-1.75-0.35-2.93-0.63l-0.15-2.86C150.92,56.63,150.85,55.44,150.72,53.61z
			 M165.55,34.89c-0.89-0.17-1.69-0.26-2.4-0.26c-1.29,0-2.41,0.25-3.36,0.75s-1.67,1.24-2.19,2.23c-0.52,0.99-0.78,2.02-0.78,3.09
			c0,0.78,0.14,1.5,0.41,2.17c0.27,0.67,0.73,1.19,1.36,1.57c0.63,0.38,1.3,0.57,2.01,0.57c1.04,0,1.96-0.38,2.76-1.13
			c0.81-0.75,1.36-1.78,1.66-3.08C165.34,39.51,165.51,37.54,165.55,34.89z"/>
		<path class="st0" d="M178.06,50.92c0.23-2.15,0.4-3.92,0.5-5.3c0.2-2.9,0.41-6.27,0.63-10.1c0.13-2.54,0.23-4.98,0.29-7.31
			c0.06-2.34,0.1-4.61,0.1-6.81c1.83,0.03,3.32,0.04,4.48,0.04c1.56,0,3.03-0.01,4.41-0.04l-0.45,5.23
			c-0.07,0.87-0.19,2.62-0.34,5.26c0.48-0.61,0.86-1.06,1.17-1.35c0.3-0.3,0.64-0.57,1.01-0.82c0.37-0.25,0.74-0.46,1.12-0.64
			c0.38-0.17,0.82-0.32,1.32-0.45c0.5-0.13,1.04-0.23,1.64-0.3c0.6-0.07,1.21-0.11,1.85-0.11c1.22,0,2.41,0.14,3.56,0.41
			c1.15,0.27,2.12,0.75,2.93,1.44c0.81,0.68,1.35,1.45,1.64,2.29c0.29,0.84,0.43,1.77,0.43,2.78c0,0.39-0.01,0.91-0.03,1.55
			c-0.02,0.64-0.07,1.45-0.14,2.43l-0.47,7.29c-0.06,0.91-0.09,1.66-0.1,2.26c-0.01,0.6-0.01,1.35-0.01,2.26
			c-1.5-0.03-2.94-0.04-4.31-0.04c-1.54,0-3.11,0.01-4.7,0.04c0.24-1.92,0.46-4.13,0.64-6.63c0.19-2.5,0.28-4.37,0.28-5.59
			c0-1.36-0.29-2.31-0.86-2.86c-0.57-0.55-1.32-0.82-2.26-0.82c-0.84,0-1.58,0.17-2.23,0.52c-0.58,0.3-1.08,0.77-1.52,1.41
			c-0.38,0.53-0.69,1.31-0.93,2.31c-0.29,1.23-0.51,3.04-0.67,5.43c-0.08,1.33-0.17,3.4-0.25,6.23c-1.46-0.03-2.82-0.04-4.08-0.04
			C181.42,50.88,179.87,50.9,178.06,50.92z"/>
		<path class="st0" d="M224.44,44.56c-0.26,1.21-0.48,2.39-0.67,3.55l-0.48,2.64c-1.43,0.32-2.54,0.52-3.34,0.61
			c-0.8,0.09-1.58,0.13-2.32,0.13c-1.23,0-2.32-0.11-3.27-0.31c-0.95-0.21-1.74-0.59-2.38-1.15c-0.63-0.55-1.07-1.19-1.3-1.91
			c-0.23-0.72-0.35-1.49-0.35-2.29c0-0.14,0.01-0.4,0.02-0.77c0.01-0.37,0.06-1.19,0.15-2.46l0.47-7.48h-3.37
			c0.07-1,0.14-2.31,0.19-3.94l0.06-2.01h3.58c0.09-0.66,0.19-2.11,0.32-4.35l3.7-0.76c0.68-0.13,2.12-0.46,4.33-1
			c-0.1,1.89-0.17,3.92-0.22,6.1h4.93c-0.12,3-0.17,4.98-0.17,5.95h-4.98l-0.26,5.41c-0.03,0.81-0.04,1.33-0.04,1.56
			c0,0.69,0.08,1.27,0.23,1.73c0.15,0.46,0.42,0.79,0.8,1c0.38,0.2,0.8,0.3,1.27,0.3c0.35,0,0.71-0.03,1.08-0.08
			C222.82,44.98,223.49,44.82,224.44,44.56z"/>
		<path class="st0" d="M259.7,44.39c-0.19,0.87-0.55,2.96-1.08,6.27c-1.67,0.33-3.08,0.55-4.22,0.66c-1.14,0.11-2.29,0.16-3.46,0.16
			c-1.72,0-3.29-0.12-4.74-0.36c-1.44-0.24-2.69-0.66-3.73-1.26c-1.05-0.6-1.92-1.36-2.63-2.26c-0.71-0.9-1.24-1.97-1.61-3.21
			c-0.37-1.24-0.55-2.51-0.55-3.83c0-1.84,0.37-3.65,1.1-5.41c0.73-1.77,1.68-3.14,2.84-4.14c1.16-0.99,2.5-1.7,4.01-2.12
			c1.51-0.42,3.06-0.63,4.65-0.63c1.64,0,3.21,0.19,4.71,0.57c1.49,0.38,2.76,1.05,3.8,2c1.04,0.95,1.78,2.03,2.22,3.22
			c0.44,1.2,0.66,2.49,0.66,3.87c0,0.82-0.09,1.74-0.28,2.75l-15.16,0.02c-0.02,0.23-0.02,0.44-0.02,0.62
			c0,1.55,0.56,2.69,1.67,3.43c1.11,0.73,2.47,1.1,4.07,1.1c0.95,0,2.04-0.11,3.25-0.34C256.41,45.3,257.91,44.92,259.7,44.39z
			 M246.39,37.4h7.14c0.01-0.25,0.02-0.45,0.02-0.63c0-0.75-0.13-1.39-0.4-1.93c-0.27-0.53-0.65-0.92-1.15-1.17
			c-0.5-0.25-1.06-0.37-1.68-0.37c-0.43,0-0.85,0.07-1.25,0.21c-0.4,0.14-0.77,0.34-1.09,0.61c-0.32,0.27-0.59,0.57-0.81,0.92
			c-0.22,0.35-0.38,0.68-0.48,1.01C246.6,36.38,246.5,36.83,246.39,37.4z"/>
		<path class="st0" d="M262.17,50.92l4.93-6.55l3.66-5.02l-6.79-10.51c2.11,0.03,3.92,0.04,5.43,0.04c1.9,0,3.47-0.01,4.69-0.04
			l2.29,4.95c0.14,0.3,0.35,0.77,0.63,1.41c1.11-1.9,2.42-4.02,3.94-6.36c1.28,0.03,2.82,0.04,4.61,0.04c1.66,0,3.24-0.01,4.74-0.04
			l-3.46,4.54c-0.68,0.89-2.13,2.86-4.35,5.88c1.33,2.29,3.75,6.18,7.27,11.66c-1.63-0.03-3.24-0.04-4.82-0.04
			c-1.93,0-3.66,0.01-5.19,0.04c-0.94-2.02-1.66-3.51-2.15-4.48c-0.5-0.97-0.92-1.85-1.27-2.66l-0.69,1.19
			c-0.22,0.36-0.55,0.89-1,1.6l-2.75,4.35c-1.56-0.03-3.07-0.04-4.54-0.04C265.63,50.88,263.91,50.9,262.17,50.92z"/>
		<path class="st0" d="M292,61.05c0.27-2.96,0.5-5.91,0.69-8.85c0.33-5.03,0.56-9.25,0.68-12.67c0.12-3.41,0.18-6.79,0.18-10.13
			c2.93-0.45,5.22-0.75,6.88-0.9c1.66-0.15,3.32-0.23,4.98-0.23c2.08,0,3.99,0.22,5.73,0.65c1.75,0.43,3.15,1.2,4.21,2.29
			c1.06,1.1,1.86,2.4,2.39,3.92c0.53,1.51,0.8,3.1,0.8,4.76c0,1.51-0.22,2.98-0.65,4.4c-0.43,1.42-1.09,2.7-1.99,3.84
			c-0.89,1.14-1.92,1.98-3.08,2.53c-1.16,0.55-2.45,0.82-3.88,0.82c-0.71,0-1.44-0.07-2.19-0.21c-0.76-0.14-1.47-0.34-2.15-0.6
			c-0.68-0.26-1.24-0.52-1.7-0.79c-0.45-0.27-1.02-0.65-1.7-1.16l-0.24,6.04c-0.1,2.77-0.15,4.86-0.15,6.27
			c-1.67-0.03-3.11-0.04-4.31-0.04C295.46,61,293.96,61.02,292,61.05z M301.97,34.92c-0.12,0.65-0.2,1.18-0.24,1.59
			c-0.04,0.41-0.09,0.97-0.13,1.67c-0.04,0.7-0.07,1.26-0.07,1.68c0,1.18,0.18,2.17,0.55,2.97c0.37,0.8,0.88,1.42,1.54,1.86
			c0.66,0.44,1.36,0.66,2.11,0.66c0.79,0,1.52-0.23,2.19-0.68c0.66-0.45,1.19-1.14,1.58-2.04c0.39-0.91,0.58-1.93,0.58-3.07
			c0-1.54-0.41-2.78-1.22-3.72c-0.82-0.94-2-1.41-3.56-1.41C304.32,34.42,303.21,34.58,301.97,34.92z"/>
		<path class="st0" d="M343.16,44.39c-0.19,0.87-0.55,2.96-1.08,6.27c-1.67,0.33-3.08,0.55-4.22,0.66
			c-1.14,0.11-2.29,0.16-3.46,0.16c-1.72,0-3.3-0.12-4.74-0.36c-1.44-0.24-2.69-0.66-3.73-1.26c-1.05-0.6-1.92-1.36-2.63-2.26
			c-0.71-0.9-1.24-1.97-1.61-3.21c-0.37-1.24-0.55-2.51-0.55-3.83c0-1.84,0.37-3.65,1.1-5.41c0.74-1.77,1.68-3.14,2.84-4.14
			c1.16-0.99,2.5-1.7,4.01-2.12c1.51-0.42,3.06-0.63,4.65-0.63c1.64,0,3.21,0.19,4.71,0.57c1.49,0.38,2.76,1.05,3.8,2
			c1.04,0.95,1.78,2.03,2.22,3.22c0.44,1.2,0.66,2.49,0.66,3.87c0,0.82-0.09,1.74-0.28,2.75l-15.16,0.02
			c-0.01,0.23-0.02,0.44-0.02,0.62c0,1.55,0.55,2.69,1.66,3.43c1.11,0.73,2.47,1.1,4.07,1.1c0.95,0,2.04-0.11,3.26-0.34
			C339.86,45.3,341.37,44.92,343.16,44.39z M329.85,37.4h7.14c0.01-0.25,0.02-0.45,0.02-0.63c0-0.75-0.13-1.39-0.4-1.93
			c-0.27-0.53-0.65-0.92-1.15-1.17c-0.5-0.25-1.06-0.37-1.68-0.37c-0.43,0-0.85,0.07-1.25,0.21c-0.4,0.14-0.77,0.34-1.09,0.61
			c-0.32,0.27-0.59,0.57-0.81,0.92c-0.22,0.35-0.38,0.68-0.48,1.01C330.05,36.38,329.95,36.83,329.85,37.4z"/>
		<path class="st0" d="M347.94,50.92l0.67-9.6l0.22-5.52c0.01-1,0.02-2.01,0.02-3.05c0-1.05-0.01-2.36-0.04-3.92
			c1.75,0.03,3.13,0.04,4.15,0.04c1.2,0,2.57-0.01,4.13-0.04L357,31.28c0.56-0.63,1.02-1.11,1.38-1.42
			c0.36-0.31,0.77-0.59,1.23-0.84c0.46-0.25,0.94-0.44,1.45-0.56c0.5-0.12,1.03-0.18,1.58-0.18c0.52,0,1.1,0.07,1.73,0.22
			c0.01,1.57,0.05,2.87,0.11,3.89l0.15,3.33c-0.79-0.23-1.53-0.35-2.23-0.35c-0.87,0-1.61,0.13-2.24,0.38
			c-0.63,0.25-1.18,0.63-1.67,1.15c-0.48,0.51-0.87,1.15-1.16,1.91c-0.29,0.76-0.49,1.98-0.61,3.63c-0.12,1.66-0.17,3.56-0.17,5.69
			c0,0.75,0.03,1.68,0.09,2.79c-1.4-0.03-2.81-0.04-4.22-0.04C351.04,50.88,349.54,50.9,347.94,50.92z"/>
		<path class="st0" d="M383.09,44.56c-0.26,1.21-0.48,2.39-0.67,3.55l-0.48,2.64c-1.43,0.32-2.54,0.52-3.34,0.61
			c-0.8,0.09-1.58,0.13-2.33,0.13c-1.23,0-2.31-0.11-3.27-0.31c-0.95-0.21-1.75-0.59-2.38-1.15c-0.63-0.55-1.07-1.19-1.3-1.91
			c-0.23-0.72-0.35-1.49-0.35-2.29c0-0.14,0.01-0.4,0.02-0.77c0.01-0.37,0.06-1.19,0.15-2.46l0.47-7.48h-3.37
			c0.07-1,0.14-2.31,0.19-3.94l0.07-2.01h3.58c0.09-0.66,0.19-2.11,0.32-4.35l3.7-0.76c0.68-0.13,2.12-0.46,4.33-1
			c-0.1,1.89-0.17,3.92-0.22,6.1h4.93c-0.12,3-0.17,4.98-0.17,5.95h-4.98l-0.26,5.41c-0.03,0.81-0.04,1.33-0.04,1.56
			c0,0.69,0.08,1.27,0.23,1.73c0.15,0.46,0.42,0.79,0.8,1c0.38,0.2,0.8,0.3,1.27,0.3c0.35,0,0.71-0.03,1.08-0.08
			C381.47,44.98,382.14,44.82,383.09,44.56z"/>
	</g>
	<g>
		<path class="st0" d="M103.93,70.54c0.13-0.7,0.22-1.18,0.25-1.45c0.04-0.27,0.09-0.68,0.17-1.25c2.04-0.45,3.79-0.67,5.26-0.67
			c0.84,0,1.6,0.09,2.29,0.28c0.69,0.19,1.24,0.49,1.62,0.91c0.39,0.42,0.58,1.02,0.58,1.8c0,0.4-0.05,1.29-0.16,2.67
			c-0.11,1.39-0.19,3.21-0.24,5.46c-0.69-0.01-1.38-0.02-2.07-0.02c-0.67,0-1.37,0.01-2.12,0.02c0.1-0.78,0.2-2.39,0.32-4.82
			c-0.27,0.13-0.48,0.22-0.63,0.28c-0.15,0.06-0.42,0.14-0.8,0.25c-0.38,0.11-0.68,0.21-0.9,0.29c-0.22,0.08-0.4,0.18-0.56,0.3
			c-0.16,0.12-0.27,0.25-0.34,0.37c-0.07,0.13-0.1,0.27-0.1,0.42c0,0.24,0.1,0.45,0.29,0.62c0.19,0.17,0.5,0.25,0.91,0.25
			c0.15,0,0.31-0.01,0.48-0.04c0.17-0.02,0.4-0.09,0.7-0.19c-0.21,0.54-0.45,1.34-0.73,2.39c-0.61,0.1-1.19,0.15-1.73,0.15
			c-0.88,0-1.61-0.12-2.19-0.37c-0.58-0.24-1.03-0.64-1.35-1.18c-0.31-0.54-0.47-1.09-0.47-1.63c0-0.33,0.06-0.66,0.18-0.98
			c0.12-0.32,0.3-0.63,0.55-0.93c0.25-0.3,0.54-0.56,0.87-0.78c0.33-0.22,0.79-0.42,1.36-0.61c0.58-0.19,1.31-0.37,2.19-0.54
			c0.37-0.07,0.71-0.15,1.01-0.23c0.31-0.08,0.53-0.15,0.66-0.21c0.13-0.06,0.24-0.13,0.32-0.21c0.08-0.08,0.14-0.17,0.18-0.25
			c0.04-0.09,0.05-0.18,0.05-0.28c0-0.27-0.11-0.48-0.34-0.62c-0.23-0.14-0.56-0.22-1-0.22C107.23,69.51,105.72,69.86,103.93,70.54z
			"/>
		<path class="st0" d="M116.08,78.29l0.19-2.28l0.41-7.94l0.12-4.27c0.98,0.01,1.73,0.02,2.22,0.02c0.64,0,1.36-0.01,2.14-0.02
			l-0.24,3.26l-0.39,8.03l-0.08,3.21c-0.76-0.01-1.44-0.01-2.05-0.01L116.08,78.29z"/>
		<path class="st0" d="M122.81,78.29l0.19-2.28l0.41-7.94l0.12-4.27c0.98,0.01,1.73,0.02,2.22,0.02c0.65,0,1.36-0.01,2.14-0.02
			l-0.24,3.26l-0.39,8.03l-0.08,3.21c-0.76-0.01-1.44-0.01-2.05-0.01L122.81,78.29z"/>
		<path class="st0" d="M136,70.54c0.13-0.7,0.22-1.18,0.25-1.45c0.04-0.27,0.09-0.68,0.17-1.25c2.04-0.45,3.79-0.67,5.26-0.67
			c0.84,0,1.6,0.09,2.29,0.28c0.69,0.19,1.24,0.49,1.62,0.91c0.39,0.42,0.58,1.02,0.58,1.8c0,0.4-0.05,1.29-0.16,2.67
			c-0.11,1.39-0.19,3.21-0.24,5.46c-0.69-0.01-1.38-0.02-2.07-0.02c-0.67,0-1.37,0.01-2.12,0.02c0.1-0.78,0.2-2.39,0.32-4.82
			c-0.27,0.13-0.48,0.22-0.63,0.28c-0.15,0.06-0.42,0.14-0.8,0.25c-0.38,0.11-0.68,0.21-0.9,0.29c-0.22,0.08-0.4,0.18-0.56,0.3
			c-0.16,0.12-0.27,0.25-0.34,0.37c-0.07,0.13-0.1,0.27-0.1,0.42c0,0.24,0.1,0.45,0.29,0.62c0.19,0.17,0.5,0.25,0.91,0.25
			c0.15,0,0.31-0.01,0.48-0.04c0.17-0.02,0.4-0.09,0.7-0.19c-0.21,0.54-0.45,1.34-0.73,2.39c-0.61,0.1-1.19,0.15-1.73,0.15
			c-0.88,0-1.61-0.12-2.19-0.37c-0.58-0.24-1.03-0.64-1.35-1.18c-0.31-0.54-0.47-1.09-0.47-1.63c0-0.33,0.06-0.66,0.18-0.98
			c0.12-0.32,0.3-0.63,0.55-0.93c0.25-0.3,0.54-0.56,0.87-0.78c0.33-0.22,0.79-0.42,1.36-0.61c0.58-0.19,1.31-0.37,2.19-0.54
			c0.37-0.07,0.71-0.15,1.01-0.23c0.31-0.08,0.53-0.15,0.66-0.21c0.13-0.06,0.24-0.13,0.32-0.21c0.08-0.08,0.14-0.17,0.18-0.25
			c0.04-0.09,0.05-0.18,0.05-0.28c0-0.27-0.11-0.48-0.34-0.62c-0.23-0.14-0.56-0.22-1-0.22C139.29,69.51,137.79,69.86,136,70.54z"/>
		<path class="st0" d="M148.12,78.29c0.2-2.23,0.37-4.83,0.52-7.79c0.15-2.97,0.22-5.2,0.22-6.7c0.82,0.01,1.59,0.02,2.31,0.02
			c0.7,0,1.39-0.01,2.06-0.02c-0.15,1.1-0.27,2.32-0.34,3.64c0.64-0.11,1.14-0.18,1.49-0.21c0.35-0.04,0.69-0.05,1.03-0.05
			c1.09,0,2.02,0.17,2.8,0.52c0.77,0.34,1.4,0.92,1.89,1.74c0.48,0.81,0.73,1.81,0.73,2.98c0,1.17-0.23,2.26-0.69,3.24
			c-0.46,0.99-1.08,1.72-1.85,2.2c-0.77,0.48-1.67,0.72-2.7,0.72c-0.38,0-0.75-0.04-1.09-0.12c-0.35-0.08-0.66-0.19-0.94-0.34
			c-0.28-0.15-0.52-0.31-0.71-0.48c-0.19-0.17-0.41-0.4-0.66-0.69l-0.04,1.36c-0.76-0.01-1.39-0.02-1.9-0.02
			C149.82,78.27,149.12,78.28,148.12,78.29z M152.6,70.42c-0.05,1.18-0.08,1.89-0.08,2.16c0,0.67,0.06,1.19,0.18,1.58
			c0.12,0.39,0.34,0.7,0.67,0.93c0.33,0.23,0.7,0.35,1.11,0.35c0.42,0,0.8-0.12,1.12-0.35c0.32-0.23,0.56-0.58,0.73-1.02
			c0.17-0.45,0.25-0.92,0.25-1.42c0-0.74-0.2-1.34-0.6-1.79c-0.4-0.45-0.98-0.67-1.73-0.67C153.77,70.19,153.22,70.27,152.6,70.42z"
			/>
		<path class="st0" d="M168.71,67.18c0.88,0,1.72,0.13,2.53,0.4c0.81,0.27,1.5,0.66,2.05,1.16c0.56,0.51,0.97,1.1,1.24,1.77
			c0.27,0.68,0.4,1.4,0.4,2.18c0,0.76-0.12,1.48-0.36,2.16c-0.24,0.68-0.64,1.32-1.21,1.92c-0.57,0.6-1.29,1.05-2.16,1.34
			c-0.87,0.3-1.8,0.45-2.78,0.45c-0.9,0-1.76-0.13-2.59-0.39c-0.83-0.26-1.52-0.64-2.08-1.15c-0.56-0.5-0.97-1.1-1.25-1.8
			c-0.28-0.7-0.42-1.44-0.42-2.21s0.14-1.51,0.41-2.21c0.27-0.7,0.7-1.33,1.3-1.89c0.59-0.56,1.32-0.99,2.19-1.29
			C166.87,67.33,167.77,67.18,168.71,67.18z M168.64,70.3c-0.45,0-0.86,0.12-1.21,0.35c-0.35,0.23-0.62,0.58-0.8,1.02
			c-0.18,0.45-0.27,0.94-0.27,1.47c0,0.78,0.19,1.38,0.58,1.79c0.39,0.41,0.88,0.62,1.46,0.62c0.45,0,0.85-0.12,1.2-0.36
			c0.35-0.24,0.62-0.59,0.8-1.05c0.18-0.46,0.27-0.96,0.27-1.49c0-0.44-0.07-0.84-0.21-1.19c-0.14-0.35-0.37-0.64-0.7-0.85
			C169.45,70.4,169.07,70.3,168.64,70.3z"/>
		<path class="st0" d="M188.39,78.29c-0.81-0.01-1.48-0.02-2.02-0.02c-0.67,0-1.33,0.01-2.01,0.02l-0.01-1.46
			c-0.25,0.32-0.47,0.56-0.65,0.72c-0.18,0.16-0.37,0.3-0.58,0.42c-0.21,0.12-0.44,0.22-0.7,0.31c-0.26,0.09-0.56,0.16-0.89,0.21
			c-0.34,0.05-0.68,0.07-1.02,0.07c-0.56,0-1.09-0.07-1.59-0.2c-0.5-0.13-0.94-0.35-1.32-0.66s-0.64-0.67-0.77-1.06
			c-0.14-0.4-0.21-0.86-0.21-1.38c0-0.13,0.01-0.33,0.03-0.59l0.17-2.41c0.05-0.88,0.1-1.87,0.14-2.94
			c0.03-0.66,0.04-1.28,0.04-1.87c0.88,0.01,1.62,0.02,2.24,0.02c0.62,0,1.31-0.01,2.06-0.02l-0.33,4.04
			c-0.05,0.62-0.08,1.04-0.08,1.26c0,0.22-0.01,0.37-0.01,0.45c0,0.74,0.15,1.25,0.45,1.51c0.3,0.26,0.66,0.39,1.08,0.39
			c0.17,0,0.34-0.02,0.51-0.07c0.17-0.05,0.33-0.12,0.49-0.21c0.13-0.08,0.26-0.19,0.37-0.32c0.12-0.13,0.23-0.3,0.32-0.49
			c0.11-0.23,0.2-0.48,0.26-0.75c0.08-0.38,0.14-0.85,0.18-1.42c0.03-0.42,0.07-1.14,0.11-2.17l0.08-2.22
			c0.91,0.01,1.66,0.02,2.25,0.02c0.66,0,1.32-0.01,1.98-0.02c-0.16,1.8-0.29,3.51-0.38,5.13C188.51,74.2,188.44,76.11,188.39,78.29
			z"/>
		<path class="st0" d="M198.69,75.17c-0.13,0.59-0.24,1.18-0.33,1.74l-0.23,1.29c-0.7,0.16-1.25,0.25-1.64,0.3
			c-0.39,0.04-0.77,0.06-1.14,0.06c-0.6,0-1.14-0.05-1.6-0.15c-0.47-0.1-0.86-0.29-1.17-0.56c-0.31-0.27-0.52-0.59-0.64-0.94
			c-0.11-0.35-0.17-0.73-0.17-1.13c0-0.07,0-0.2,0.01-0.38c0.01-0.18,0.03-0.58,0.07-1.21l0.23-3.67h-1.65
			c0.04-0.49,0.07-1.13,0.1-1.93l0.03-0.99h1.76c0.04-0.33,0.09-1.04,0.16-2.13l1.82-0.37c0.33-0.06,1.04-0.23,2.13-0.49
			c-0.05,0.93-0.09,1.93-0.11,2.99h2.42c-0.06,1.47-0.08,2.45-0.08,2.92h-2.44l-0.13,2.65c-0.01,0.4-0.02,0.65-0.02,0.76
			c0,0.34,0.04,0.62,0.11,0.85c0.07,0.23,0.21,0.39,0.39,0.49c0.19,0.1,0.39,0.15,0.62,0.15c0.17,0,0.35-0.01,0.53-0.04
			C197.89,75.38,198.22,75.3,198.69,75.17z"/>
		<path class="st0" d="M204.6,83.15c-0.22-1.69-0.37-2.74-0.45-3.15c0.45,0.21,0.84,0.36,1.18,0.43c0.34,0.08,0.64,0.12,0.89,0.12
			c0.26,0,0.51-0.04,0.74-0.11c0.23-0.07,0.41-0.16,0.55-0.26c0.13-0.1,0.28-0.26,0.44-0.47c0.16-0.21,0.28-0.39,0.36-0.55
			c0.08-0.15,0.16-0.37,0.23-0.65l-2-6.04l-1.71-5.01c1.05,0.01,1.8,0.02,2.22,0.02c0.5,0,1.17-0.01,2.03-0.02
			c0.13,0.54,0.38,1.49,0.75,2.82c0.36,1.34,0.63,2.39,0.79,3.14c0.09,0.42,0.18,0.95,0.27,1.59l0.22-0.85
			c0.07-0.23,0.15-0.49,0.24-0.78c0.09-0.29,0.21-0.64,0.35-1.04l0.69-1.93l1.15-2.96c0.88,0.01,1.55,0.02,2.01,0.02
			c0.4,0,1.1-0.01,2.12-0.02l-2.05,4.63l-3.7,8.59c-0.24,0.48-0.47,0.86-0.69,1.15c-0.21,0.25-0.43,0.48-0.67,0.67
			c-0.23,0.18-0.47,0.33-0.73,0.45c-0.35,0.16-0.74,0.29-1.17,0.38c-0.47,0.1-0.94,0.15-1.42,0.15c-0.22,0-0.51-0.02-0.87-0.05
			c-0.36-0.03-0.65-0.06-0.88-0.1C205.26,83.29,204.97,83.23,204.6,83.15z"/>
		<path class="st0" d="M224.66,67.18c0.88,0,1.72,0.13,2.53,0.4c0.81,0.27,1.5,0.66,2.05,1.16c0.56,0.51,0.97,1.1,1.24,1.77
			c0.27,0.68,0.4,1.4,0.4,2.18c0,0.76-0.12,1.48-0.36,2.16c-0.24,0.68-0.64,1.32-1.21,1.92c-0.57,0.6-1.29,1.05-2.16,1.34
			c-0.88,0.3-1.8,0.45-2.78,0.45c-0.9,0-1.76-0.13-2.59-0.39c-0.83-0.26-1.52-0.64-2.08-1.15c-0.56-0.5-0.97-1.1-1.25-1.8
			c-0.28-0.7-0.42-1.44-0.42-2.21s0.14-1.51,0.41-2.21c0.27-0.7,0.7-1.33,1.3-1.89c0.59-0.56,1.32-0.99,2.19-1.29
			C222.81,67.33,223.72,67.18,224.66,67.18z M224.58,70.3c-0.45,0-0.86,0.12-1.21,0.35c-0.35,0.23-0.62,0.58-0.8,1.02
			c-0.18,0.45-0.27,0.94-0.27,1.47c0,0.78,0.2,1.38,0.58,1.79c0.39,0.41,0.88,0.62,1.47,0.62c0.45,0,0.85-0.12,1.2-0.36
			c0.35-0.24,0.62-0.59,0.8-1.05c0.18-0.46,0.27-0.96,0.27-1.49c0-0.44-0.07-0.84-0.21-1.19c-0.14-0.35-0.37-0.64-0.7-0.85
			C225.39,70.4,225.02,70.3,224.58,70.3z"/>
		<path class="st0" d="M244.34,78.29c-0.81-0.01-1.48-0.02-2.02-0.02c-0.67,0-1.34,0.01-2.01,0.02l-0.01-1.46
			c-0.25,0.32-0.47,0.56-0.65,0.72c-0.18,0.16-0.37,0.3-0.58,0.42s-0.44,0.22-0.7,0.31c-0.26,0.09-0.56,0.16-0.89,0.21
			c-0.34,0.05-0.68,0.07-1.02,0.07c-0.56,0-1.09-0.07-1.59-0.2c-0.5-0.13-0.94-0.35-1.32-0.66c-0.38-0.31-0.64-0.67-0.78-1.06
			c-0.14-0.4-0.21-0.86-0.21-1.38c0-0.13,0.01-0.33,0.03-0.59l0.17-2.41c0.05-0.88,0.09-1.87,0.14-2.94
			c0.03-0.66,0.04-1.28,0.04-1.87c0.88,0.01,1.62,0.02,2.24,0.02c0.62,0,1.31-0.01,2.06-0.02l-0.33,4.04
			c-0.05,0.62-0.08,1.04-0.08,1.26c0,0.22,0,0.37,0,0.45c0,0.74,0.15,1.25,0.45,1.51c0.3,0.26,0.66,0.39,1.08,0.39
			c0.17,0,0.34-0.02,0.51-0.07c0.17-0.05,0.33-0.12,0.49-0.21c0.13-0.08,0.26-0.19,0.37-0.32c0.12-0.13,0.23-0.3,0.32-0.49
			c0.11-0.23,0.2-0.48,0.25-0.75c0.08-0.38,0.14-0.85,0.18-1.42c0.03-0.42,0.07-1.14,0.11-2.17l0.08-2.22
			c0.91,0.01,1.66,0.02,2.25,0.02c0.66,0,1.32-0.01,1.98-0.02c-0.16,1.8-0.29,3.51-0.38,5.13C244.46,74.2,244.38,76.11,244.34,78.29
			z"/>
		<path class="st0" d="M246.72,78.29l0.33-4.71l0.11-2.71c0.01-0.49,0.01-0.99,0.01-1.5c0-0.52-0.01-1.16-0.02-1.92
			c0.86,0.01,1.54,0.02,2.04,0.02c0.59,0,1.26-0.01,2.03-0.02l-0.04,1.2c0.28-0.31,0.5-0.54,0.68-0.7c0.18-0.15,0.38-0.29,0.61-0.41
			c0.23-0.12,0.46-0.22,0.71-0.28c0.25-0.06,0.51-0.09,0.78-0.09c0.25,0,0.54,0.04,0.85,0.11c0.01,0.77,0.02,1.41,0.05,1.91
			l0.07,1.64c-0.39-0.11-0.75-0.17-1.09-0.17c-0.42,0-0.79,0.06-1.1,0.19c-0.31,0.12-0.58,0.31-0.82,0.56
			c-0.24,0.25-0.43,0.56-0.57,0.94c-0.14,0.38-0.24,0.97-0.3,1.78c-0.06,0.81-0.08,1.75-0.08,2.79c0,0.37,0.01,0.83,0.04,1.37
			c-0.69-0.01-1.38-0.02-2.07-0.02C248.25,78.27,247.51,78.28,246.72,78.29z"/>
		<path class="st0" d="M266.3,67.45l-0.22,5.4l-0.11,5.01c-0.01,0.69-0.02,1.1-0.02,1.22c0,0.81-0.06,1.51-0.19,2.08
			c-0.12,0.57-0.37,1.03-0.74,1.37c-0.37,0.34-0.83,0.58-1.38,0.72c-0.55,0.14-1.17,0.21-1.88,0.21c-0.42,0-0.93-0.02-1.53-0.07
			c-0.61-0.05-1.28-0.14-2.02-0.27c-0.04-0.77-0.14-1.83-0.29-3.15c0.63,0.19,1.19,0.29,1.67,0.29c0.39,0,0.74-0.07,1.05-0.22
			c0.25-0.11,0.44-0.26,0.58-0.45c0.14-0.18,0.25-0.43,0.33-0.74c0.07-0.28,0.13-0.75,0.18-1.41c0.08-1.3,0.15-2.89,0.2-4.77
			c0.04-1.59,0.05-2.97,0.05-4.13v-1.08c0.84,0.01,1.57,0.02,2.19,0.02C264.83,67.47,265.54,67.47,266.3,67.45z M262.12,66.05
			c0.07-1.03,0.11-1.87,0.12-2.53c0.58,0.01,1.28,0.02,2.1,0.02c0.74,0,1.43-0.01,2.08-0.02c-0.07,1.03-0.12,1.87-0.14,2.53
			c-0.69-0.02-1.39-0.03-2.08-0.03C263.48,66.02,262.79,66.03,262.12,66.05z"/>
		<path class="st0" d="M274.65,67.18c0.88,0,1.72,0.13,2.53,0.4c0.81,0.27,1.5,0.66,2.05,1.16c0.56,0.51,0.97,1.1,1.24,1.77
			c0.27,0.68,0.4,1.4,0.4,2.18c0,0.76-0.12,1.48-0.36,2.16c-0.24,0.68-0.64,1.32-1.21,1.92c-0.57,0.6-1.29,1.05-2.16,1.34
			c-0.88,0.3-1.8,0.45-2.78,0.45c-0.9,0-1.76-0.13-2.59-0.39c-0.83-0.26-1.52-0.64-2.08-1.15c-0.56-0.5-0.97-1.1-1.25-1.8
			c-0.28-0.7-0.42-1.44-0.42-2.21s0.14-1.51,0.41-2.21c0.27-0.7,0.7-1.33,1.29-1.89c0.59-0.56,1.32-0.99,2.19-1.29
			C272.8,67.33,273.71,67.18,274.65,67.18z M274.57,70.3c-0.45,0-0.86,0.12-1.21,0.35c-0.35,0.23-0.62,0.58-0.8,1.02
			c-0.18,0.45-0.27,0.94-0.27,1.47c0,0.78,0.2,1.38,0.58,1.79c0.39,0.41,0.88,0.62,1.47,0.62c0.45,0,0.85-0.12,1.2-0.36
			c0.35-0.24,0.62-0.59,0.8-1.05c0.18-0.46,0.27-0.96,0.27-1.49c0-0.44-0.07-0.84-0.21-1.19c-0.14-0.35-0.37-0.64-0.7-0.85
			C275.38,70.4,275,70.3,274.57,70.3z"/>
		<path class="st0" d="M294.32,78.29c-0.81-0.01-1.48-0.02-2.02-0.02c-0.67,0-1.33,0.01-2.01,0.02l-0.01-1.46
			c-0.25,0.32-0.47,0.56-0.65,0.72c-0.18,0.16-0.37,0.3-0.58,0.42c-0.21,0.12-0.44,0.22-0.7,0.31c-0.26,0.09-0.56,0.16-0.89,0.21
			c-0.34,0.05-0.68,0.07-1.02,0.07c-0.56,0-1.09-0.07-1.59-0.2c-0.5-0.13-0.94-0.35-1.32-0.66s-0.64-0.67-0.78-1.06
			c-0.14-0.4-0.21-0.86-0.21-1.38c0-0.13,0.01-0.33,0.03-0.59l0.17-2.41c0.05-0.88,0.09-1.87,0.14-2.94
			c0.03-0.66,0.04-1.28,0.04-1.87c0.88,0.01,1.62,0.02,2.24,0.02c0.62,0,1.31-0.01,2.06-0.02l-0.33,4.04
			c-0.05,0.62-0.08,1.04-0.08,1.26c0,0.22,0,0.37,0,0.45c0,0.74,0.15,1.25,0.45,1.51c0.3,0.26,0.66,0.39,1.08,0.39
			c0.17,0,0.34-0.02,0.51-0.07c0.17-0.05,0.33-0.12,0.49-0.21c0.13-0.08,0.26-0.19,0.37-0.32c0.12-0.13,0.23-0.3,0.32-0.49
			c0.11-0.23,0.2-0.48,0.25-0.75c0.08-0.38,0.14-0.85,0.18-1.42c0.03-0.42,0.07-1.14,0.11-2.17l0.08-2.22
			c0.91,0.01,1.66,0.02,2.25,0.02c0.66,0,1.32-0.01,1.98-0.02c-0.16,1.8-0.29,3.51-0.38,5.13C294.44,74.2,294.37,76.11,294.32,78.29
			z"/>
		<path class="st0" d="M296.71,78.29l0.33-4.71l0.11-2.71c0.01-0.49,0.01-0.99,0.01-1.5c0-0.52-0.01-1.16-0.02-1.92
			c0.86,0.01,1.54,0.02,2.04,0.02c0.59,0,1.26-0.01,2.03-0.02l-0.04,1.2c0.28-0.31,0.5-0.54,0.68-0.7c0.18-0.15,0.38-0.29,0.61-0.41
			c0.23-0.12,0.46-0.22,0.71-0.28c0.25-0.06,0.51-0.09,0.78-0.09c0.25,0,0.54,0.04,0.85,0.11c0.01,0.77,0.02,1.41,0.05,1.91
			l0.07,1.64c-0.39-0.11-0.75-0.17-1.09-0.17c-0.42,0-0.79,0.06-1.1,0.19c-0.31,0.12-0.58,0.31-0.82,0.56
			c-0.24,0.25-0.43,0.56-0.57,0.94c-0.14,0.38-0.24,0.97-0.3,1.78c-0.06,0.81-0.08,1.75-0.08,2.79c0,0.37,0.01,0.83,0.04,1.37
			c-0.69-0.01-1.38-0.02-2.07-0.02C298.23,78.27,297.5,78.28,296.71,78.29z"/>
		<path class="st0" d="M305.96,78.29c0.2-1.61,0.36-3.38,0.47-5.33c0.11-1.94,0.17-3.78,0.19-5.52c0.85,0.01,1.58,0.02,2.2,0.02
			c0.72,0,1.4-0.01,2.06-0.02l-0.11,1.44c0.23-0.26,0.43-0.47,0.6-0.62c0.17-0.15,0.38-0.3,0.63-0.45c0.25-0.15,0.52-0.26,0.8-0.36
			c0.28-0.09,0.59-0.17,0.93-0.22c0.34-0.05,0.69-0.08,1.06-0.08c0.51,0,1.01,0.06,1.49,0.17c0.48,0.11,0.89,0.27,1.22,0.47
			c0.33,0.2,0.6,0.45,0.82,0.75c0.22,0.3,0.36,0.62,0.44,0.97c0.07,0.35,0.11,0.7,0.11,1.07c0,0.27-0.03,0.85-0.09,1.74l-0.18,3.84
			c-0.04,0.76-0.05,1.46-0.05,2.1c-0.71-0.01-1.38-0.02-2-0.02c-0.84,0-1.61,0.01-2.3,0.02c0.06-0.64,0.13-1.6,0.2-2.87
			c0.07-1.27,0.11-2.16,0.11-2.68c0-0.8-0.15-1.36-0.46-1.67c-0.31-0.31-0.7-0.47-1.16-0.47c-0.41,0-0.8,0.13-1.16,0.4
			c-0.37,0.27-0.65,0.66-0.85,1.17c-0.2,0.51-0.34,1.36-0.42,2.53c-0.08,1.17-0.14,2.37-0.17,3.59c-0.71-0.01-1.4-0.02-2.07-0.02
			C307.55,78.27,306.79,78.28,305.96,78.29z"/>
		<path class="st0" d="M331.36,75.09c-0.09,0.42-0.27,1.45-0.53,3.08c-0.82,0.16-1.51,0.27-2.07,0.32c-0.56,0.05-1.13,0.08-1.7,0.08
			c-0.84,0-1.62-0.06-2.33-0.18c-0.71-0.12-1.32-0.32-1.83-0.62c-0.51-0.3-0.94-0.67-1.29-1.11c-0.35-0.44-0.61-0.97-0.79-1.58
			c-0.18-0.61-0.27-1.23-0.27-1.88c0-0.91,0.18-1.79,0.54-2.66c0.36-0.87,0.83-1.54,1.4-2.03c0.57-0.49,1.23-0.83,1.97-1.04
			c0.74-0.21,1.5-0.31,2.28-0.31c0.81,0,1.58,0.09,2.31,0.28c0.73,0.19,1.35,0.52,1.86,0.98c0.51,0.47,0.87,1,1.09,1.58
			c0.22,0.59,0.32,1.22,0.32,1.9c0,0.4-0.05,0.85-0.14,1.35l-7.44,0.01c-0.01,0.11-0.01,0.21-0.01,0.31c0,0.76,0.27,1.32,0.82,1.68
			c0.54,0.36,1.21,0.54,2,0.54c0.47,0,1-0.05,1.6-0.17C329.74,75.53,330.48,75.35,331.36,75.09z M324.83,71.66h3.5
			c0.01-0.12,0.01-0.22,0.01-0.31c0-0.37-0.07-0.68-0.2-0.94c-0.13-0.26-0.32-0.45-0.56-0.57c-0.25-0.12-0.52-0.18-0.82-0.18
			c-0.21,0-0.42,0.03-0.62,0.1c-0.2,0.07-0.38,0.17-0.54,0.3c-0.16,0.13-0.29,0.28-0.4,0.45c-0.11,0.17-0.18,0.33-0.23,0.49
			C324.93,71.15,324.88,71.37,324.83,71.66z"/>
		<path class="st0" d="M332.83,83.15c-0.22-1.69-0.37-2.74-0.45-3.15c0.45,0.21,0.84,0.36,1.18,0.43c0.34,0.08,0.64,0.12,0.89,0.12
			c0.26,0,0.51-0.04,0.74-0.11c0.23-0.07,0.41-0.16,0.55-0.26c0.13-0.1,0.28-0.26,0.44-0.47c0.16-0.21,0.28-0.39,0.36-0.55
			c0.08-0.15,0.16-0.37,0.23-0.65l-2-6.04l-1.71-5.01c1.05,0.01,1.8,0.02,2.22,0.02c0.5,0,1.17-0.01,2.03-0.02
			c0.13,0.54,0.38,1.49,0.75,2.82c0.36,1.34,0.63,2.39,0.79,3.14c0.09,0.42,0.18,0.95,0.27,1.59l0.22-0.85
			c0.07-0.23,0.15-0.49,0.24-0.78c0.09-0.29,0.21-0.64,0.35-1.04l0.69-1.93l1.15-2.96c0.88,0.01,1.55,0.02,2.01,0.02
			c0.4,0,1.1-0.01,2.12-0.02l-2.05,4.63l-3.7,8.59c-0.24,0.48-0.47,0.86-0.69,1.15c-0.21,0.25-0.43,0.48-0.67,0.67
			c-0.23,0.18-0.47,0.33-0.73,0.45c-0.35,0.16-0.74,0.29-1.17,0.38c-0.47,0.1-0.94,0.15-1.42,0.15c-0.22,0-0.51-0.02-0.87-0.05
			c-0.36-0.03-0.65-0.06-0.88-0.1C333.5,83.29,333.2,83.23,332.83,83.15z"/>
	</g>
</g>
</svg>
